<svg width="413" height="95" viewBox="0 0 413 95" fill="none" xmlns="http://www.w3.org/2000/svg">
<path d="M151.602 17.2002C165.702 17.2002 175.802 28.1002 175.802 44.4002C175.802 60.6002 165.602 71.6002 151.602 71.6002C144.602 71.6002 139.002 68.8002 135.402 63.6002H134.402V93.0002H119.602V18.8002H134.402V25.3002H135.402C139.002 20.1002 144.302 17.2002 151.602 17.2002ZM147.402 29.9002C139.502 29.9002 133.802 36.2002 133.802 44.4002C133.802 52.6002 139.502 59.0002 147.402 59.0002C155.302 59.0002 160.902 52.6002 160.902 44.4002C160.902 36.1002 155.202 29.9002 147.402 29.9002Z" fill="#44216A"/>
<path d="M209.327 71.6002C192.727 71.6002 181.027 60.5002 181.027 44.0002C181.027 28.0002 192.727 17.2002 209.227 17.2002C225.527 17.2002 236.727 28.1002 236.727 44.2002C236.727 45.5002 236.727 47.6002 236.527 48.7002H196.327C197.527 55.9002 202.627 60.6002 209.927 60.6002C215.627 60.6002 220.027 57.8002 222.227 53.6002L234.827 56.8002C231.627 66.0002 221.727 71.6002 209.327 71.6002ZM196.227 39.5002H221.627C220.727 33.0002 215.727 28.2002 208.827 28.2002C202.127 28.2002 197.427 32.7002 196.227 39.5002Z" fill="#44216A"/>
<path d="M258.227 71.3002C247.727 71.3002 240.527 65.8002 240.527 56.6002C240.527 47.0002 248.627 41.1002 264.727 39.1002L275.627 37.8002V35.7002C275.627 30.8002 272.227 27.5002 266.327 27.5002C260.927 27.5002 257.227 30.5002 257.327 35.6002H242.827C242.827 24.4002 252.127 17.2002 266.527 17.2002C281.127 17.2002 290.427 24.6002 290.427 36.2002V70.0002H275.627V63.5002H274.627C271.427 68.6002 265.527 71.3002 258.227 71.3002ZM263.127 61.6002C270.527 61.6002 275.627 56.8002 275.627 50.4002V46.8002L265.127 48.1002C257.827 49.0002 255.027 51.9002 255.027 55.4002C255.027 59.2002 258.027 61.6002 263.127 61.6002Z" fill="#44216A"/>
<path d="M313.853 70.0002H299.053V18.8002H313.853V26.0002H314.853C318.653 20.2002 323.553 17.3002 329.753 17.3002C341.353 17.3002 349.053 26.3002 349.053 38.6002V70.0002H334.253V40.7002C334.253 34.4002 330.653 30.0002 324.653 30.0002C318.753 30.0002 313.853 34.7002 313.853 41.2002V70.0002Z" fill="#44216A"/>
<path d="M383.698 71.6002C366.598 71.6002 355.298 60.9002 355.298 44.4002C355.298 27.9002 366.598 17.2002 383.698 17.2002C400.698 17.2002 412.098 27.9002 412.098 44.4002C412.098 61.0002 400.698 71.6002 383.698 71.6002ZM383.698 59.0002C391.598 59.0002 397.198 52.9002 397.198 44.4002C397.198 35.9002 391.598 29.9002 383.698 29.9002C375.698 29.9002 370.098 35.9002 370.098 44.4002C370.098 52.9002 375.698 59.0002 383.698 59.0002Z" fill="#44216A"/>
<path d="M94.466 48.5285C94.8475 31.8148 86.3418 15.4183 70.8437 6.47038C55.3455 -2.4775 38.343 -1.69258 24.3251 6.04569L24.1551 66.7994L42.0583 56.3946L41.7747 18.0303L94.4701 48.5437L94.466 48.5285Z" fill="#2FB8F7"/>
<path d="M75.7961 57.9521L23.6256 88.2988C46.2302 101.324 75.1156 93.5679 88.16 70.9744C92.2676 63.8598 94.3083 56.1288 94.4801 48.4597L41.7848 17.9463L41.9257 38.5509L75.785 57.9714L75.7961 57.9521Z" fill="#6858F9"/>
<path d="M6.34265 23.7371C-6.71282 46.3499 1.03214 75.2544 23.6449 88.3099C23.6449 88.3099 23.6793 88.3169 23.6833 88.3321L75.8538 57.9855L57.4532 47.426L24.238 66.7447L24.3928 5.99503C17.114 10.0096 10.8014 15.9921 6.33858 23.722L6.34265 23.7371Z" fill="#44216A"/>
</svg>
