<?xml version="1.0" encoding="UTF-8"?>
<svg id="Layer_1" xmlns="http://www.w3.org/2000/svg" version="1.1" viewBox="0 0 314.35 95">
  <!-- Generator: Adobe Illustrator 29.8.0, SVG Export Plug-In . SVG Version: 2.1.1 Build 160)  -->
  <defs>
    <style>
      .st0 {
        fill: #44216a;
      }
    </style>
  </defs>
  <g>
    <path class="st0" d="M121.33,27.66c9.29,0,15.95,7.18,15.95,17.93s-6.72,17.93-15.95,17.93c-4.61,0-8.3-1.85-10.68-5.27h-.66v19.38h-9.75V28.71h9.75v4.28h.66c2.37-3.43,5.87-5.34,10.68-5.34ZM118.56,36.03c-5.21,0-8.96,4.15-8.96,9.56s3.76,9.62,8.96,9.62,8.9-4.22,8.9-9.62-3.76-9.56-8.9-9.56Z"/>
    <path class="st0" d="M159.37,63.51c-10.94,0-18.65-7.32-18.65-18.19s7.71-17.66,18.58-17.66,18.12,7.18,18.12,17.79c0,.86,0,2.24-.13,2.97h-26.49c.79,4.74,4.15,7.84,8.96,7.84,3.76,0,6.66-1.85,8.11-4.61l8.3,2.11c-2.11,6.06-8.63,9.75-16.81,9.75ZM150.74,42.35h16.74c-.59-4.28-3.89-7.45-8.44-7.45s-7.51,2.97-8.3,7.45Z"/>
    <path class="st0" d="M191.6,63.31c-6.92,0-11.66-3.62-11.66-9.69s5.34-10.21,15.95-11.53l7.18-.86v-1.38c0-3.23-2.24-5.4-6.13-5.4-3.56,0-6,1.98-5.93,5.34h-9.56c0-7.38,6.13-12.13,15.62-12.13s15.75,4.88,15.75,12.52v22.28h-9.75v-4.28h-.66c-2.11,3.36-6,5.14-10.81,5.14ZM194.83,56.92c4.88,0,8.24-3.16,8.24-7.38v-2.37l-6.92.86c-4.81.59-6.66,2.5-6.66,4.81,0,2.5,1.98,4.09,5.34,4.09Z"/>
    <path class="st0" d="M228.26,62.45h-9.75V28.71h9.75v4.74h.66c2.5-3.82,5.73-5.73,9.82-5.73,7.64,0,12.72,5.93,12.72,14.04v20.69h-9.75v-19.31c0-4.15-2.37-7.05-6.33-7.05s-7.12,3.1-7.12,7.38v18.98Z"/>
    <path class="st0" d="M274.29,63.51c-11.27,0-18.72-7.05-18.72-17.93s7.45-17.93,18.72-17.93,18.72,7.05,18.72,17.93-7.51,17.93-18.72,17.93ZM274.29,55.2c5.21,0,8.9-4.02,8.9-9.62s-3.69-9.56-8.9-9.56-8.96,3.95-8.96,9.56,3.69,9.62,8.96,9.62Z"/>
  </g>
  <path class="st0" d="M84.68,48.21c.23-11.72-5.92-22.63-16.07-28.49-9.95-5.74-21.43-5.87-31.51-.36-.03.01-.06.02-.08.03-5.11,2.82-9.35,6.99-12.28,12.06-.02.03-.04.07-.05.11-4.25,7.42-5.37,16.04-3.16,24.3,2.22,8.29,7.54,15.22,14.97,19.51,0,0,0,0,0,0,0,0,0,0,0,0,0,0,0,0,0,0,0,0,0,0,.01,0,0,0,.01,0,.02,0,5.03,2.89,10.52,4.26,15.95,4.26,11.12,0,21.96-5.77,27.9-16.07,2.69-4.66,4.18-9.96,4.3-15.32,0-.02,0-.05,0-.07ZM50.12,51.75l-.06-8.28,7.2,4.13-7.14,4.15ZM67.61,21.45c9.03,5.22,14.69,14.7,15.06,25.06l-33.2-19.23c-.31-.18-.69-.18-1,0-.31.18-.5.51-.5.87h0s0,.04,0,.06l.1,12.88v.65s0,0,0,0l.08,11.17-9.74,5.66.1-37.69c9.35-4.93,19.93-4.73,29.11.57ZM23.45,55.35c-2.08-7.78-1.01-15.9,3.01-22.88.02-.03.04-.07.05-.1,2.44-4.2,5.85-7.73,9.93-10.31l-.11,38.29c0,.36.19.69.5.87.15.09.33.13.5.13s.35-.04.5-.14l11.8-6.86s.03-.02.05-.04l9.58-5.57,10.09,5.79-32.36,18.83c-6.71-4.05-11.51-10.42-13.54-18.01ZM78.65,62.6c-8,13.86-25.44,18.97-39.58,11.9l32.83-19.1c.31-.18.5-.51.5-.87s-.19-.69-.5-.86l-12.13-6.96s-.08-.03-.12-.05l-9.61-5.51-.08-11.2,32.69,18.93c-.21,4.8-1.59,9.53-4.01,13.72Z"/>
</svg>