<?xml version="1.0" encoding="UTF-8"?>
<svg id="Layer_1" xmlns="http://www.w3.org/2000/svg" version="1.1" viewBox="0 0 93.78 95">
  <!-- Generator: Adobe Illustrator 29.8.0, SVG Export Plug-In . SVG Version: 2.1.1 Build 160)  -->
  <defs>
    <style>
      .st0 {
        fill: #404040;
      }

      .st1 {
        fill: gray;
      }

      .st2 {
        fill: #bfbfbf;
      }
    </style>
  </defs>
  <path class="st2" d="M78.01,48.3c.25-11.01-5.35-21.82-15.57-27.72-10.21-5.9-21.42-5.38-30.66-.28l-.11,40.04,11.8-6.86-.19-25.28,34.73,20.11h0Z"/>
  <path class="st1" d="M65.71,54.51l-34.38,20c14.9,8.58,33.93,3.47,42.53-11.42,2.71-4.69,4.05-9.78,4.17-14.84l-34.73-20.11.09,13.58,22.31,12.8h0Z"/>
  <path class="st0" d="M19.94,31.97c-8.6,14.9-3.5,33.95,11.4,42.56,0,0,.02,0,.03.01l34.38-20-12.13-6.96-21.89,12.73.1-40.04c-4.8,2.65-8.96,6.59-11.9,11.68h0Z"/>
</svg>