<?xml version="1.0" encoding="UTF-8"?>
<svg id="Layer_1" xmlns="http://www.w3.org/2000/svg" version="1.1" viewBox="0 0 93.78 95">
  <!-- Generator: Adobe Illustrator 29.8.0, SVG Export Plug-In . SVG Version: 2.1.1 Build 160)  -->
  <defs>
    <style>
      .st0 {
        fill: #44216a;
      }
    </style>
  </defs>
  <path class="st0" d="M79.02,48.22c.23-11.72-5.92-22.63-16.07-28.49-9.95-5.74-21.43-5.87-31.51-.36-.03.01-.06.02-.08.03-5.11,2.82-9.35,6.99-12.28,12.06-.02.03-.04.07-.05.11-4.25,7.42-5.37,16.04-3.16,24.3,2.22,8.29,7.54,15.22,14.97,19.51,0,0,0,0,0,0,0,0,0,0,0,0,0,0,0,0,0,0,0,0,0,0,.01,0,0,0,.01,0,.02,0,5.03,2.89,10.52,4.26,15.95,4.26,11.12,0,21.96-5.77,27.9-16.07,2.69-4.66,4.18-9.96,4.3-15.32,0-.02,0-.05,0-.07ZM44.47,51.75l-.06-8.28,7.2,4.13-7.14,4.15ZM61.95,21.46c9.03,5.22,14.69,14.7,15.06,25.06l-33.2-19.23c-.31-.18-.69-.18-1,0-.31.18-.5.51-.5.87h0s0,.04,0,.06l.1,12.88v.65s0,0,0,0l.08,11.17-9.74,5.66.1-37.69c9.35-4.93,19.93-4.73,29.11.57ZM17.79,55.35c-2.08-7.78-1.01-15.9,3.01-22.88.02-.03.04-.07.05-.1,2.44-4.2,5.85-7.73,9.93-10.31l-.11,38.29c0,.36.19.69.5.87.15.09.33.13.5.13s.35-.04.5-.14l11.8-6.86s.03-.02.05-.04l9.58-5.57,10.09,5.79-32.36,18.83c-6.71-4.05-11.51-10.42-13.54-18.01ZM73,62.6c-8,13.86-25.44,18.97-39.58,11.9l32.83-19.1c.31-.18.5-.51.5-.87s-.19-.69-.5-.86l-12.13-6.96s-.08-.03-.12-.05l-9.61-5.51-.08-11.2,32.69,18.93c-.21,4.8-1.59,9.53-4.01,13.72Z"/>
</svg>