<?xml version="1.0" encoding="UTF-8"?>
<svg id="Layer_2" data-name="Layer 2" xmlns="http://www.w3.org/2000/svg" viewBox="0 0 154.74 243.2">
  <defs>
    <style>
      .cls-1 {
        fill: #f99f25;
      }

      .cls-2 {
        fill: none;
      }

      .cls-3 {
        fill: #e32029;
      }

      .cls-4 {
        fill: #dfdcea;
      }

      .cls-5 {
        fill: #312e33;
      }

      .cls-6 {
        fill: #ee6724;
      }
    </style>
  </defs>
  <g id="Layer_1-2" data-name="Layer 1">
    <g>
      <path class="cls-5" d="M9.23,243.2c-5.02,0-9.1-4.03-9.1-9L0,9.09C0,4.11,4.07.08,9.09.08L145.51,0c5.02,0,9.1,4.03,9.1,9l.13,225.12c0,4.97-4.07,9.01-9.09,9.01l-136.42.08Z"/>
      <g>
        <rect class="cls-2" x="87.19" y="195.28" width="67.54" height="47.86"/>
        <g>
          <rect class="cls-6" x="113.96" y="206.67" width="13.96" height="25.08"/>
          <path class="cls-3" d="M114.84,219.21c0-5.09,2.38-9.62,6.09-12.55-2.71-2.13-6.14-3.41-9.86-3.41-8.81,0-15.95,7.15-15.94,15.96,0,8.81,7.15,15.95,15.96,15.94,3.72,0,7.14-1.28,9.86-3.42-3.71-2.92-6.1-7.45-6.1-12.54Z"/>
          <path class="cls-1" d="M146.75,219.2c0,8.81-7.13,15.96-15.94,15.96-3.72,0-7.15-1.27-9.86-3.41,3.71-2.92,6.09-7.46,6.09-12.55,0-5.09-2.39-9.62-6.1-12.54,2.71-2.14,6.14-3.41,9.86-3.42,8.81,0,15.96,7.13,15.96,15.94Z"/>
          <path d="M145.23,229.08v-.51s.21,0,.21,0v-.1s-.53,0-.53,0v.1s.21,0,.21,0v.51s.11,0,.11,0ZM146.26,229.08v-.62s-.16,0-.16,0l-.19.43-.19-.43h-.16s0,.62,0,.62h.11s0-.47,0-.47l.17.4h.12s.17-.4.17-.4v.47s.11,0,.11,0Z"/>
        </g>
      </g>
      <g>
        <g>
          <g>
            <g>
              <path class="cls-4" d="M56.38,117.74c3.16,0,5.42,2.44,5.42,6.09s-2.28,6.09-5.42,6.09c-1.57,0-2.82-.63-3.63-1.79h-.22v6.58h-3.31v-16.61h3.31v1.46h.22c.81-1.16,1.99-1.81,3.63-1.81ZM55.44,120.58c-1.77,0-3.05,1.41-3.05,3.25s1.28,3.27,3.05,3.27,3.02-1.43,3.02-3.27-1.28-3.25-3.02-3.25Z"/>
              <path class="cls-4" d="M69.3,129.92c-3.72,0-6.34-2.49-6.34-6.18s2.62-6,6.31-6,6.16,2.44,6.16,6.05c0,.29,0,.76-.04,1.01h-9c.27,1.61,1.41,2.66,3.05,2.66,1.28,0,2.26-.63,2.75-1.57l2.82.72c-.72,2.06-2.93,3.31-5.71,3.31ZM66.37,122.73h5.69c-.2-1.46-1.32-2.53-2.87-2.53s-2.55,1.01-2.82,2.53Z"/>
              <path class="cls-4" d="M80.25,129.85c-2.35,0-3.96-1.23-3.96-3.29s1.81-3.47,5.42-3.92l2.44-.29v-.47c0-1.1-.76-1.84-2.08-1.84-1.21,0-2.04.67-2.02,1.81h-3.25c0-2.51,2.08-4.12,5.31-4.12s5.35,1.66,5.35,4.25v7.57h-3.31v-1.46h-.22c-.72,1.14-2.04,1.75-3.67,1.75ZM81.35,127.68c1.66,0,2.8-1.07,2.8-2.51v-.81l-2.35.29c-1.63.2-2.26.85-2.26,1.63,0,.85.67,1.39,1.81,1.39Z"/>
              <path class="cls-4" d="M92.71,129.56h-3.31v-11.46h3.31v1.61h.22c.85-1.3,1.95-1.95,3.34-1.95,2.6,0,4.32,2.02,4.32,4.77v7.03h-3.31v-6.56c0-1.41-.81-2.4-2.15-2.4s-2.42,1.05-2.42,2.51v6.45Z"/>
              <path class="cls-4" d="M108.35,129.92c-3.83,0-6.36-2.4-6.36-6.09s2.53-6.09,6.36-6.09,6.36,2.4,6.36,6.09-2.55,6.09-6.36,6.09ZM108.35,127.1c1.77,0,3.02-1.37,3.02-3.27s-1.25-3.25-3.02-3.25-3.05,1.34-3.05,3.25,1.25,3.27,3.05,3.27Z"/>
            </g>
            <path class="cls-4" d="M43.92,124.72c.08-3.98-2.01-7.69-5.46-9.68-3.38-1.95-7.28-1.99-10.71-.12,0,0-.02,0-.03.01-1.73.96-3.18,2.37-4.17,4.1,0,.01-.01.02-.02.04-1.44,2.52-1.82,5.45-1.07,8.26.75,2.82,2.56,5.17,5.09,6.63,0,0,0,0,0,0,0,0,0,0,0,0,0,0,0,0,0,0,0,0,0,0,0,0,0,0,0,0,0,0,1.71.98,3.58,1.45,5.42,1.45,3.78,0,7.46-1.96,9.48-5.46.91-1.58,1.42-3.38,1.46-5.2,0,0,0-.02,0-.02ZM32.18,125.92l-.02-2.81,2.45,1.4-2.43,1.41ZM38.12,115.63c3.07,1.77,4.99,5,5.12,8.51l-11.28-6.53c-.11-.06-.24-.06-.34,0-.11.06-.17.17-.17.3h0s0,.01,0,.02l.03,4.37v.22s0,0,0,0l.03,3.79-3.31,1.92.03-12.8c3.18-1.68,6.77-1.61,9.89.19ZM23.12,127.14c-.71-2.64-.34-5.4,1.02-7.77,0-.01.01-.02.02-.03.83-1.43,1.99-2.63,3.37-3.5l-.04,13.01c0,.12.06.23.17.3.05.03.11.05.17.05s.12-.02.17-.05l4.01-2.33s.01,0,.02-.01l3.26-1.89,3.43,1.97-11,6.4c-2.28-1.38-3.91-3.54-4.6-6.12ZM41.88,129.61c-2.72,4.71-8.64,6.45-13.45,4.04l11.16-6.49c.1-.06.17-.17.17-.29s-.07-.23-.17-.29l-4.12-2.36s-.03-.01-.04-.02l-3.27-1.87-.03-3.8,11.11,6.43c-.07,1.63-.54,3.24-1.36,4.66Z"/>
          </g>
          <g>
            <path class="cls-4" d="M119.25,122.23c-.33,0-.61-.08-.86-.23s-.44-.37-.58-.65-.21-.62-.21-1.01.07-.72.21-1.01c.14-.28.33-.5.58-.66.25-.15.54-.23.87-.23.45,0,.8.11,1.05.34.25.22.41.54.49.93l-.58.03c-.05-.25-.15-.44-.31-.58-.16-.14-.37-.21-.65-.21-.22,0-.41.06-.57.17-.16.11-.29.27-.38.48-.09.21-.14.46-.14.75s.05.54.14.75c.09.21.22.37.38.48s.35.16.57.16c.29,0,.52-.08.68-.23.16-.16.26-.37.3-.64l.58.03c-.04.28-.13.51-.27.72-.13.2-.31.36-.53.47-.22.11-.48.17-.77.17Z"/>
            <path class="cls-4" d="M123.96,122.23c-.35,0-.65-.08-.9-.23-.25-.15-.45-.37-.58-.65s-.2-.62-.2-1.01.07-.73.2-1.01c.14-.28.33-.5.58-.66.25-.15.55-.23.9-.23s.66.08.91.23.45.37.58.66c.13.28.2.62.2,1.01s-.07.73-.2,1.01c-.13.28-.33.5-.58.65s-.56.23-.91.23ZM123.96,121.73c.23,0,.44-.05.6-.16s.3-.27.39-.47.14-.46.14-.75-.04-.54-.13-.75c-.09-.21-.22-.37-.39-.48-.17-.11-.37-.17-.6-.17s-.43.06-.6.17c-.17.11-.3.27-.39.48-.09.21-.14.46-.14.75s.04.54.13.75c.09.21.22.36.39.47s.37.16.6.16Z"/>
            <path class="cls-4" d="M127.26,122.15v-3.63h1.45c.26,0,.48.04.67.13.19.09.33.21.43.38.1.16.15.36.15.58,0,.16-.04.31-.11.44s-.17.23-.29.31c-.12.08-.25.12-.39.13l-.03-.05c.23,0,.41.05.53.16s.2.27.22.49l.1,1.06h-.56l-.09-.99c-.01-.15-.06-.25-.15-.32s-.23-.1-.43-.1h-.96v1.42h-.55ZM127.81,120.23h.9c.21,0,.37-.05.49-.16.12-.1.18-.25.18-.44s-.06-.34-.18-.45c-.12-.1-.3-.16-.54-.16h-.86v1.2Z"/>
            <path class="cls-4" d="M131.76,122.15v-3.63h1.35c.42,0,.74.1.97.3.23.2.35.48.35.83,0,.23-.05.44-.16.61-.11.17-.26.3-.45.39-.2.09-.43.14-.71.14h-.8v1.36h-.55ZM132.31,120.29h.79c.25,0,.44-.05.57-.16s.19-.27.19-.48-.06-.36-.19-.47c-.13-.1-.32-.16-.57-.16h-.79v1.26Z"/>
          </g>
        </g>
        <g>
          <g>
            <g>
              <path class="cls-4" d="M56.38,117.74c3.16,0,5.42,2.44,5.42,6.09s-2.28,6.09-5.42,6.09c-1.57,0-2.82-.63-3.63-1.79h-.22v6.58h-3.31v-16.61h3.31v1.46h.22c.81-1.16,1.99-1.81,3.63-1.81ZM55.44,120.58c-1.77,0-3.05,1.41-3.05,3.25s1.28,3.27,3.05,3.27,3.02-1.43,3.02-3.27-1.28-3.25-3.02-3.25Z"/>
              <path class="cls-4" d="M69.3,129.92c-3.72,0-6.34-2.49-6.34-6.18s2.62-6,6.31-6,6.16,2.44,6.16,6.05c0,.29,0,.76-.04,1.01h-9c.27,1.61,1.41,2.66,3.05,2.66,1.28,0,2.26-.63,2.75-1.57l2.82.72c-.72,2.06-2.93,3.31-5.71,3.31ZM66.37,122.73h5.69c-.2-1.46-1.32-2.53-2.87-2.53s-2.55,1.01-2.82,2.53Z"/>
              <path class="cls-4" d="M80.25,129.85c-2.35,0-3.96-1.23-3.96-3.29s1.81-3.47,5.42-3.92l2.44-.29v-.47c0-1.1-.76-1.84-2.08-1.84-1.21,0-2.04.67-2.02,1.81h-3.25c0-2.51,2.08-4.12,5.31-4.12s5.35,1.66,5.35,4.25v7.57h-3.31v-1.46h-.22c-.72,1.14-2.04,1.75-3.67,1.75ZM81.35,127.68c1.66,0,2.8-1.07,2.8-2.51v-.81l-2.35.29c-1.63.2-2.26.85-2.26,1.63,0,.85.67,1.39,1.81,1.39Z"/>
              <path class="cls-4" d="M92.71,129.56h-3.31v-11.46h3.31v1.61h.22c.85-1.3,1.95-1.95,3.34-1.95,2.6,0,4.32,2.02,4.32,4.77v7.03h-3.31v-6.56c0-1.41-.81-2.4-2.15-2.4s-2.42,1.05-2.42,2.51v6.45Z"/>
              <path class="cls-4" d="M108.35,129.92c-3.83,0-6.36-2.4-6.36-6.09s2.53-6.09,6.36-6.09,6.36,2.4,6.36,6.09-2.55,6.09-6.36,6.09ZM108.35,127.1c1.77,0,3.02-1.37,3.02-3.27s-1.25-3.25-3.02-3.25-3.05,1.34-3.05,3.25,1.25,3.27,3.05,3.27Z"/>
            </g>
            <path class="cls-4" d="M43.92,124.72c.08-3.98-2.01-7.69-5.46-9.68-3.38-1.95-7.28-1.99-10.71-.12,0,0-.02,0-.03.01-1.73.96-3.18,2.37-4.17,4.1,0,.01-.01.02-.02.04-1.44,2.52-1.82,5.45-1.07,8.26.75,2.82,2.56,5.17,5.09,6.63,0,0,0,0,0,0,0,0,0,0,0,0,0,0,0,0,0,0,0,0,0,0,0,0,0,0,0,0,0,0,1.71.98,3.58,1.45,5.42,1.45,3.78,0,7.46-1.96,9.48-5.46.91-1.58,1.42-3.38,1.46-5.2,0,0,0-.02,0-.02ZM32.18,125.92l-.02-2.81,2.45,1.4-2.43,1.41ZM38.12,115.63c3.07,1.77,4.99,5,5.12,8.51l-11.28-6.53c-.11-.06-.24-.06-.34,0-.11.06-.17.17-.17.3h0s0,.01,0,.02l.03,4.37v.22s0,0,0,0l.03,3.79-3.31,1.92.03-12.8c3.18-1.68,6.77-1.61,9.89.19ZM23.12,127.14c-.71-2.64-.34-5.4,1.02-7.77,0-.01.01-.02.02-.03.83-1.43,1.99-2.63,3.37-3.5l-.04,13.01c0,.12.06.23.17.3.05.03.11.05.17.05s.12-.02.17-.05l4.01-2.33s.01,0,.02-.01l3.26-1.89,3.43,1.97-11,6.4c-2.28-1.38-3.91-3.54-4.6-6.12ZM41.88,129.61c-2.72,4.71-8.64,6.45-13.45,4.04l11.16-6.49c.1-.06.17-.17.17-.29s-.07-.23-.17-.29l-4.12-2.36s-.03-.01-.04-.02l-3.27-1.87-.03-3.8,11.11,6.43c-.07,1.63-.54,3.24-1.36,4.66Z"/>
          </g>
          <g>
            <path class="cls-4" d="M119.25,122.23c-.33,0-.61-.08-.86-.23s-.44-.37-.58-.65-.21-.62-.21-1.01.07-.72.21-1.01c.14-.28.33-.5.58-.66.25-.15.54-.23.87-.23.45,0,.8.11,1.05.34.25.22.41.54.49.93l-.58.03c-.05-.25-.15-.44-.31-.58-.16-.14-.37-.21-.65-.21-.22,0-.41.06-.57.17-.16.11-.29.27-.38.48-.09.21-.14.46-.14.75s.05.54.14.75c.09.21.22.37.38.48s.35.16.57.16c.29,0,.52-.08.68-.23.16-.16.26-.37.3-.64l.58.03c-.04.28-.13.51-.27.72-.13.2-.31.36-.53.47-.22.11-.48.17-.77.17Z"/>
            <path class="cls-4" d="M123.96,122.23c-.35,0-.65-.08-.9-.23-.25-.15-.45-.37-.58-.65s-.2-.62-.2-1.01.07-.73.2-1.01c.14-.28.33-.5.58-.66.25-.15.55-.23.9-.23s.66.08.91.23.45.37.58.66c.13.28.2.62.2,1.01s-.07.73-.2,1.01c-.13.28-.33.5-.58.65s-.56.23-.91.23ZM123.96,121.73c.23,0,.44-.05.6-.16s.3-.27.39-.47.14-.46.14-.75-.04-.54-.13-.75c-.09-.21-.22-.37-.39-.48-.17-.11-.37-.17-.6-.17s-.43.06-.6.17c-.17.11-.3.27-.39.48-.09.21-.14.46-.14.75s.04.54.13.75c.09.21.22.36.39.47s.37.16.6.16Z"/>
            <path class="cls-4" d="M127.26,122.15v-3.63h1.45c.26,0,.48.04.67.13.19.09.33.21.43.38.1.16.15.36.15.58,0,.16-.04.31-.11.44s-.17.23-.29.31c-.12.08-.25.12-.39.13l-.03-.05c.23,0,.41.05.53.16s.2.27.22.49l.1,1.06h-.56l-.09-.99c-.01-.15-.06-.25-.15-.32s-.23-.1-.43-.1h-.96v1.42h-.55ZM127.81,120.23h.9c.21,0,.37-.05.49-.16.12-.1.18-.25.18-.44s-.06-.34-.18-.45c-.12-.1-.3-.16-.54-.16h-.86v1.2Z"/>
            <path class="cls-4" d="M131.76,122.15v-3.63h1.35c.42,0,.74.1.97.3.23.2.35.48.35.83,0,.23-.05.44-.16.61-.11.17-.26.3-.45.39-.2.09-.43.14-.71.14h-.8v1.36h-.55ZM132.31,120.29h.79c.25,0,.44-.05.57-.16s.19-.27.19-.48-.06-.36-.19-.47c-.13-.1-.32-.16-.57-.16h-.79v1.26Z"/>
          </g>
        </g>
      </g>
    </g>
  </g>
</svg>